<svg width="144" height="144" viewBox="0 0 144 144" fill="none" xmlns="http://www.w3.org/2000/svg">
<g clip-path="url(#clip0_167_24)">
<path d="M62.5363 92.1335C63.793 96.4383 67.2845 102.619 67.2845 102.619C67.2845 102.619 57.5242 99.6034 51.8819 100.59C46.3605 101.555 39.6061 104.536 40.301 107.129C41.2074 110.512 47.018 103.747 55.1246 103.747C64.2736 103.747 68.0558 107.029 70.7588 109.046C75.9703 112.936 77.1285 117.302 86.0457 122.464C90.3307 124.944 92.6468 125.733 102.49 127.425C107.818 128.34 120.904 127.199 130.516 120.998C136.01 117.453 141.518 113.105 143.024 109.948C143.633 108.67 144.877 107.355 143.024 106.34C140.759 105.1 138.732 111.191 135.496 113.782C129.976 118.202 127.505 120.885 119.514 122.689C110.164 124.8 104.007 124.48 94.9629 121.336C89.9115 119.58 87.0865 118.196 82.9187 114.909C79.6114 112.301 77.8148 110.611 75.507 107.129C72.5822 102.717 72.7113 101.405 70.7588 94.5013C68.5584 86.7215 71.9169 81.0618 69.0216 79.9564C63.1154 77.7014 59.4095 81.4221 62.5363 92.1335Z" fill="#EFB810" fill-opacity="0.6"/>
<path d="M28.7926 72.4424C15.0789 76.1997 2.73786 90.1796 3.71449 92.5272C4.69112 94.8748 23.0858 101.902 37.7308 97.269C52.3758 92.6359 63.038 78.7978 62.6485 77.153C62.259 75.5082 42.5064 68.6852 28.7926 72.4424Z" fill="#EFB810" fill-opacity="0.6"/>
<path d="M97.9625 76.1712C84.7283 81.306 66.2 77.512 65.5093 75.07C64.8187 72.6281 75.0344 56.1602 89.5549 51.1695C104.075 46.1789 121.182 50.8539 121.9 52.3904C122.618 53.9269 111.197 71.0364 97.9625 76.1712Z" fill="#EFB810" fill-opacity="0.6"/>
<path d="M90.6964 55.7516C83.8417 67.9108 67.0678 76.4608 64.9392 75.0047C62.8106 73.5485 59.9305 54.5156 67.8717 41.6708C75.8129 28.8261 92.0659 21.8363 93.6239 22.577C95.1818 23.3177 97.551 43.5924 90.6964 55.7516Z" fill="#EFB810" fill-opacity="0.6"/>
<path d="M40.7234 51.2368C27.5447 45.9684 8.9769 49.5746 8.26022 52.0094C7.54353 54.4442 17.5829 71.0146 32.0493 76.152C46.5157 81.2894 63.6716 76.7877 64.4059 75.2586C65.1402 73.7295 53.902 56.5053 40.7234 51.2368Z" fill="#EFB810" fill-opacity="0.6"/>
<path d="M67.6322 45.2292C72.0329 58.4211 66.9374 76.1747 64.3895 76.6866C61.8417 77.1986 45.6286 66.2009 41.4594 51.7688C37.2901 37.3366 43.1961 21.0213 44.8177 20.4239C46.4393 19.8265 63.2314 32.0373 67.6322 45.2292Z" fill="#EFB810" fill-opacity="0.6"/>
</g>
<defs>
<clipPath id="clip0_167_24">
<rect width="144" height="144" fill="white"/>
</clipPath>
</defs>
</svg>
